<svg width="609" height="784" viewBox="0 0 609 784" fill="none" xmlns="http://www.w3.org/2000/svg">
<path d="M207.912 277.124C249.203 277.124 282.353 243.372 282.353 201.329C282.353 159.287 249.203 125.535 207.912 125.535C166.62 125.535 133.471 159.287 133.471 201.329C132.889 242.779 166.62 277.124 207.912 277.124ZM416.114 426.344C382.383 426.344 355.049 454.175 355.049 488.52C355.049 522.864 382.383 550.695 416.114 550.695C449.845 550.695 477.179 522.864 477.179 488.52C477.761 454.175 450.427 426.344 416.114 426.344ZM590.004 184.749C561.507 184.749 538.244 208.435 538.244 237.45C538.244 266.465 561.507 290.151 590.004 290.151C618.501 290.151 641.764 266.465 641.764 237.45C641.764 207.843 618.501 184.749 590.004 184.749ZM219.543 342.852C219.543 317.39 199.188 296.665 174.181 296.665C149.173 296.665 128.818 317.39 128.818 342.852C128.818 368.314 149.173 389.039 174.181 389.039C199.188 389.039 219.543 368.314 219.543 342.852ZM245.132 322.719C245.132 345.221 262.579 362.985 284.679 362.985C306.779 362.985 324.226 345.221 324.226 322.719C324.226 300.218 306.779 282.453 284.679 282.453C262.579 282.453 245.132 300.218 245.132 322.719ZM389.362 406.804C409.717 406.804 426.001 390.224 426.001 369.499C426.001 348.773 409.717 332.193 389.362 332.193C369.007 332.193 352.723 348.773 352.723 369.499C352.141 389.631 369.007 406.804 389.362 406.804ZM567.904 165.208C588.259 165.208 604.543 148.628 604.543 127.903C604.543 107.178 588.259 90.5982 567.904 90.5982C547.549 90.5982 531.265 107.178 531.265 127.903C531.265 148.628 547.549 165.208 567.904 165.208ZM535.918 470.163C515.563 470.163 499.279 486.743 499.279 507.468C499.279 528.193 515.563 544.773 535.918 544.773C556.273 544.773 572.557 528.193 572.557 507.468C572.557 486.743 556.273 470.163 535.918 470.163ZM288.168 126.719C310.268 126.719 327.715 108.955 327.715 86.4532C327.715 63.9517 310.268 46.1873 288.168 46.1873C266.069 46.1873 248.622 63.9517 248.622 86.4532C248.622 108.363 266.65 126.719 288.168 126.719ZM256.764 381.934C212.564 381.934 176.507 418.647 176.507 463.65C176.507 508.653 212.564 545.366 256.764 545.366C300.963 544.773 337.02 508.06 337.02 463.057C337.02 418.054 300.963 381.934 256.764 381.934ZM526.613 197.776C526.613 136.193 477.761 86.4532 417.277 86.4532C356.794 86.4532 307.942 136.193 307.942 197.776C307.942 259.36 356.794 309.1 417.277 309.1C477.761 309.692 526.613 259.36 526.613 197.776ZM535.918 297.849C494.045 297.849 459.732 332.786 459.732 375.42C459.732 418.054 494.045 452.991 535.918 452.991C577.791 452.991 612.103 418.054 612.103 375.42C612.103 332.786 578.372 297.849 535.918 297.849Z" fill="#82B000"/>
<path d="M405.064 570.236H364.936L359.702 743.734H409.717L405.064 570.236Z" fill="#9B510E" fill-opacity="0.14"/>
</svg>
